<svg width="35" height="33" viewBox="0 0 35 33" fill="none" xmlns="http://www.w3.org/2000/svg">
<path d="M30.0163 6.7359H5.04944C4.77354 6.7359 4.50894 6.84197 4.31385 7.03078C4.11876 7.21958 4.00916 7.47566 4.00916 7.74267V24.8578C4.00916 25.3918 4.22836 25.904 4.61854 26.2816C5.00872 26.6592 5.53793 26.8713 6.08973 26.8713H28.976C29.5278 26.8713 30.057 26.6592 30.4472 26.2816C30.8374 25.904 31.0566 25.3918 31.0566 24.8578V7.74267C31.0566 7.47566 30.947 7.21958 30.7519 7.03078C30.5568 6.84197 30.2922 6.7359 30.0163 6.7359ZM27.3376 8.74944L17.5329 17.4454L7.72818 8.74944H27.3376ZM28.976 24.8578H6.08973V10.0331L16.8307 19.5597C17.0225 19.7294 17.273 19.8236 17.5329 19.8236C17.7928 19.8236 18.0433 19.7294 18.2351 19.5597L28.976 10.0331V24.8578Z" fill="white"/>
</svg>
