<svg width="36" height="40" viewBox="0 0 36 40" fill="none" xmlns="http://www.w3.org/2000/svg">
<g clip-path="url(#clip0_1_660)">
<path d="M18.0123 7.95093C16.9059 7.95093 15.8243 8.308 14.9044 8.977C13.9845 9.64599 13.2675 10.5969 12.8441 11.7094C12.4207 12.8219 12.3099 14.046 12.5258 15.227C12.7416 16.4081 13.2744 17.4929 14.0567 18.3444C14.8391 19.1958 15.8358 19.7757 16.9209 20.0106C18.0061 20.2455 19.1308 20.125 20.153 19.6641C21.1752 19.2033 22.0488 18.423 22.6635 17.4218C23.2782 16.4205 23.6063 15.2434 23.6063 14.0393C23.6063 12.4245 23.0169 10.8759 21.9678 9.73416C20.9187 8.59238 19.4959 7.95093 18.0123 7.95093ZM18.0123 18.0025C17.2921 18.0025 16.588 17.7701 15.9892 17.3346C15.3903 16.8991 14.9236 16.2801 14.648 15.5559C14.3724 14.8317 14.3003 14.0349 14.4408 13.2661C14.5813 12.4973 14.9281 11.7911 15.4374 11.2368C15.9466 10.6825 16.5955 10.3051 17.3019 10.1522C18.0082 9.99923 18.7404 10.0777 19.4058 10.3777C20.0712 10.6777 20.6399 11.1856 21.04 11.8374C21.4402 12.4891 21.6537 13.2554 21.6537 14.0393C21.6511 15.0885 21.2663 16.0939 20.5837 16.8348C19.9011 17.5758 18.9764 17.9919 18.0123 17.9919V18.0025Z" fill="white"/>
<path d="M18.0123 2.93573C14.9714 2.93849 12.0551 4.25082 9.90032 6.58607C7.74554 8.92132 6.52738 12.0897 6.5119 15.3993C6.5119 20.3613 9.06971 24.5158 10.9441 27.5441L11.2858 28.0966C13.1508 31.0384 15.1514 33.8754 17.2801 36.5969L18.022 37.5425L18.764 36.5969C20.8924 33.8752 22.893 31.0381 24.7583 28.0966L25.1 27.5334C26.9646 24.5052 29.5224 20.3613 29.5224 15.3993C29.5069 12.0879 28.2874 8.91788 26.1305 6.58232C23.9737 4.24677 21.0548 2.93569 18.0123 2.93573ZM23.4696 26.3115L23.1181 26.8747C21.439 29.616 19.2131 32.6867 18.0123 34.2062C16.8603 32.6867 14.5856 29.616 12.9064 26.8747L12.5647 26.3115C10.8367 23.5064 8.46443 19.6707 8.46443 15.3568C8.46443 13.9921 8.71139 12.6409 9.19122 11.3801C9.67104 10.1193 10.3743 8.97375 11.2609 8.0088C12.1475 7.04385 13.2001 6.27841 14.3585 5.75619C15.5169 5.23396 16.7584 4.96517 18.0123 4.96517C19.2661 4.96517 20.5077 5.23396 21.6661 5.75619C22.8245 6.27841 23.877 7.04385 24.7636 8.0088C25.6502 8.97375 26.3535 10.1193 26.8334 11.3801C27.3132 12.6409 27.5601 13.9921 27.5601 15.3568C27.5601 19.7132 25.1976 23.5489 23.4696 26.3115Z" fill="white"/>
</g>
<defs>
<clipPath id="clip0_1_660">
<rect width="35.1455" height="38.2513" fill="white" transform="translate(0.439514 0.810669)"/>
</clipPath>
</defs>
</svg>
