<svg width="33" height="33" viewBox="0 0 33 33" fill="none" xmlns="http://www.w3.org/2000/svg">
<path d="M19.5068 5.54217C19.5402 5.41419 19.5989 5.29418 19.6794 5.18918C19.7598 5.08417 19.8604 4.99627 19.9753 4.93064C20.0902 4.865 20.217 4.82295 20.3483 4.80695C20.4796 4.79094 20.6128 4.80131 20.74 4.83743C22.6168 5.34078 24.3281 6.32907 25.7021 7.70305C27.0761 9.07702 28.0643 10.7883 28.5677 12.6651C28.6038 12.7923 28.6142 12.9255 28.5982 13.0568C28.5822 13.1882 28.5401 13.315 28.4745 13.4298C28.4089 13.5447 28.321 13.6453 28.216 13.7257C28.1109 13.8062 27.9909 13.8649 27.863 13.8984C27.7771 13.9233 27.6881 13.936 27.5987 13.9361C27.3765 13.9349 27.1609 13.8601 26.9857 13.7235C26.8104 13.5869 26.6852 13.3962 26.6297 13.1811C26.211 11.6486 25.4 10.2518 24.2767 9.12847C23.1533 8.00515 21.7565 7.19414 20.2241 6.77547C20.095 6.74336 19.9736 6.68567 19.8672 6.6058C19.7608 6.52593 19.6715 6.42552 19.6046 6.31052C19.5377 6.19551 19.4946 6.06825 19.4778 5.93627C19.461 5.80429 19.4708 5.67028 19.5068 5.54217ZM19.1796 10.6641C20.0314 10.8973 20.8078 11.3483 21.4323 11.9728C22.0568 12.5973 22.5078 13.3737 22.741 14.2256C22.7946 14.4418 22.9192 14.6338 23.0949 14.7707C23.2707 14.9076 23.4873 14.9816 23.71 14.9807C23.7954 14.9815 23.8804 14.9687 23.9617 14.9429C24.0908 14.9108 24.2122 14.8531 24.3186 14.7732C24.425 14.6934 24.5143 14.593 24.5812 14.478C24.6481 14.3629 24.6912 14.2357 24.708 14.1037C24.7248 13.9717 24.715 13.8377 24.679 13.7096C24.3612 12.5134 23.7329 11.4225 22.8578 10.5474C21.9826 9.67222 20.8917 9.04391 19.6955 8.72609C19.5642 8.67825 19.4243 8.65827 19.2849 8.66744C19.1454 8.6766 19.0094 8.71471 18.8854 8.77933C18.7615 8.84395 18.6524 8.93366 18.565 9.04276C18.4777 9.15187 18.414 9.27796 18.378 9.41303C18.3421 9.54809 18.3346 9.68916 18.3562 9.82726C18.3777 9.96536 18.4278 10.0975 18.5032 10.2151C18.5786 10.3328 18.6777 10.4335 18.7941 10.5108C18.9106 10.5881 19.0418 10.6403 19.1796 10.6641ZM29.5619 22.8083C29.3393 24.5077 28.5071 26.0685 27.2201 27.2004C25.933 28.3324 24.2788 28.9584 22.5648 28.9622C12.5726 28.9622 4.44293 20.8325 4.44293 10.8403C4.44671 9.12635 5.07276 7.47208 6.20469 6.18507C7.33661 4.89806 8.89738 4.06587 10.5968 3.84325C11.03 3.79521 11.4673 3.88642 11.8452 4.10365C12.2231 4.32088 12.522 4.65283 12.6985 5.05137L15.228 10.9536C15.3592 11.2599 15.4118 11.5942 15.381 11.9261C15.3503 12.2579 15.2371 12.5768 15.0518 12.8539L12.9627 16.0504C13.9087 17.9701 15.4674 19.52 17.3925 20.455L20.5513 18.3533C20.828 18.1668 21.1477 18.0539 21.4802 18.0253C21.8127 17.9966 22.147 18.0532 22.4516 18.1897L28.3538 20.7067C28.7523 20.8832 29.0842 21.1821 29.3015 21.5599C29.5187 21.9378 29.6099 22.3751 29.5619 22.8083ZM27.5609 22.5566L21.6587 20.0397L18.5126 22.1413C18.2231 22.3327 17.889 22.446 17.5429 22.4703C17.1967 22.4945 16.8501 22.4289 16.5368 22.2798C14.1922 21.1456 12.2957 19.2579 11.1505 16.9187C10.9996 16.6064 10.9318 16.2604 10.9539 15.9143C10.9759 15.5681 11.087 15.2335 11.2764 14.9429L13.378 11.7464L10.8485 5.8442C9.63404 6.00032 8.5181 6.59376 7.70965 7.51341C6.9012 8.43305 6.45567 9.61584 6.45648 10.8403C6.45981 15.1115 8.158 19.2068 11.1782 22.2269C14.1984 25.2471 18.2936 26.9453 22.5648 26.9487C23.7893 26.9495 24.9721 26.5039 25.8917 25.6955C26.8114 24.887 27.4048 23.7711 27.5609 22.5566Z" fill="white"/>
</svg>
